<svg width="21" height="11" viewBox="0 0 21 11" fill="none" xmlns="http://www.w3.org/2000/svg">
<path d="M3.43658 10V0.661999H2.41458L0.0765814 3.07L0.776581 3.784L2.27458 2.202V10H3.43658ZM5.35272 10.28L8.67072 0.381999H7.84472L4.52672 10.28H5.35272ZM12.3233 10V0.661999H11.3013L8.9633 3.07L9.6633 3.784L11.1613 2.202V10H12.3233ZM17.6274 10.168C19.5034 10.168 20.9454 8.992 20.9454 7.088C20.9454 5.17 19.5314 4.106 17.9774 4.106C17.0394 4.106 16.2414 4.498 15.7934 4.946V1.698H20.3434V0.661999H14.6314V5.702L15.4854 5.996C16.1154 5.38 16.8154 5.114 17.6414 5.114C18.9014 5.114 19.7834 5.898 19.7834 7.13C19.7834 8.264 18.9014 9.132 17.6274 9.132C16.4794 9.132 15.6674 8.684 15.0514 7.9L14.3374 8.67C15.0374 9.594 16.0454 10.168 17.6274 10.168Z" fill="#233735"/>
</svg>
