<svg xmlns="http://www.w3.org/2000/svg" width="34.5" height="31.502" viewBox="0 0 34.5 31.502">
  <g id="Group_1000003536" data-name="Group 1000003536" transform="translate(-2.5)">
    <path id="Path_10759" data-name="Path 10759" d="M15,6.5A12.5,12.5,0,1,1,9.266,30.11L4.484,31.444a1.562,1.562,0,0,1-1.925-1.925L3.893,24.74A12.5,12.5,0,0,1,15,6.5Zm0,1.875a10.628,10.628,0,0,0-9.284,15.8l.188.337-1.391,4.98L9.5,28.1l.337.188A10.626,10.626,0,1,0,15,8.375ZM10.938,20.25H16.56a.938.938,0,0,1,.127,1.867l-.127.008H10.938a.938.938,0,0,1-.127-1.867l.127-.008h0Zm0-4.375h8.131a.938.938,0,0,1,.127,1.867l-.127.008H10.938a.938.938,0,0,1-.127-1.866l.127-.009h0Z" fill="#657372"/>
    <circle id="Ellipse_562" data-name="Ellipse 562" cx="10" cy="10" r="10" transform="translate(17)" fill="#00b686"/>
    <path id="Path_10762" data-name="Path 10762" d="M27,13.108c1.26,0,2.412-.549,2.412-1.665a1.732,1.732,0,0,0-1.3-1.539,1.518,1.518,0,0,0,1.2-1.413c0-1.125-1.206-1.584-2.313-1.584s-2.313.459-2.313,1.584A1.51,1.51,0,0,0,25.873,9.9a1.722,1.722,0,0,0-1.287,1.539C24.586,12.568,25.738,13.108,27,13.108ZM27,9.4c-.369-.054-1.017-.261-1.017-.711,0-.432.423-.684,1.017-.684s1.008.252,1.008.684C28.006,9.14,27.367,9.347,27,9.4Zm0,2.61c-.63,0-1.116-.288-1.116-.729,0-.5.738-.747,1.116-.8.369.054,1.116.3,1.116.8C28.114,11.722,27.61,12.01,27,12.01Z" fill="#fff"/>
  </g>
</svg>
