<svg id="Layer_1" data-name="Layer 1" xmlns="http://www.w3.org/2000/svg" viewBox="0 0 22.78 24"><defs><style>.cls-1{fill:#233735;}</style></defs><path class="cls-1" d="M20.81,24H5.87a2,2,0,0,1-2-2v-5a.38.38,0,0,1,.38-.38H16.9a.48.48,0,0,0,.48-.48V10a.49.49,0,0,0-.48-.48H4.28a.38.38,0,0,1-.38-.37V2a2,2,0,0,1,2-2H16.64A.38.38,0,0,1,17,.38V5.16a.59.59,0,0,0,.59.6H22.4a.37.37,0,0,1,.37.37V22A2,2,0,0,1,20.81,24ZM4.65,17.45V22a1.22,1.22,0,0,0,1.22,1.22H20.81A1.22,1.22,0,0,0,22,22V6.51H17.61a1.35,1.35,0,0,1-1.34-1.35V.75H5.87A1.22,1.22,0,0,0,4.65,2V8.78H16.9A1.23,1.23,0,0,1,18.13,10v6.21a1.23,1.23,0,0,1-1.23,1.23Z"/><path class="cls-1" d="M16.9,17.46H1.23A1.24,1.24,0,0,1,0,16.22V10A1.24,1.24,0,0,1,1.23,8.78H16.9A1.25,1.25,0,0,1,18.14,10v6.2A1.25,1.25,0,0,1,16.9,17.46ZM1.23,9.53A.49.49,0,0,0,.75,10v6.2a.49.49,0,0,0,.48.49H16.9a.49.49,0,0,0,.49-.49V10a.49.49,0,0,0-.49-.49Z"/><path class="cls-1" d="M22.41,6.51H17.62a1.35,1.35,0,0,1-1.34-1.35V.38A.37.37,0,0,1,16.51,0a.37.37,0,0,1,.41.08l5.73,5.73a.39.39,0,0,1,.13.29A.38.38,0,0,1,22.41,6.51ZM17,1.28V5.16a.6.6,0,0,0,.6.6H21.5Z"/><path class="cls-1" d="M3.15,15.52A.52.52,0,0,1,2.62,15a.53.53,0,0,1,1,0A.52.52,0,0,1,3.15,15.52Z"/><path class="cls-1" d="M5.58,14V15.1a.44.44,0,0,1-.88,0V11.5a.48.48,0,0,1,.49-.45h.92A1.39,1.39,0,0,1,7.7,12.52,1.4,1.4,0,0,1,6.11,14Zm0-.79h.53c.47,0,.72-.21.72-.66s-.13-.66-.72-.66H5.58Z"/><path class="cls-1" d="M9.77,15.46H9.06A.47.47,0,0,1,8.58,15V11.5a.47.47,0,0,1,.48-.45h.71c1.41,0,1.9.77,1.9,1.64v1.08C11.67,14.65,11.19,15.46,9.77,15.46Zm1-2.77a.8.8,0,0,0-.92-.85H9.45v2.83h.43a.82.82,0,0,0,.92-.9Z"/><path class="cls-1" d="M13.48,15.12a.44.44,0,0,1-.88,0V11.49a.48.48,0,0,1,.49-.44h1.69a.42.42,0,0,1,.44.4.41.41,0,0,1-.44.39h-1.3v1h1.18a.42.42,0,0,1,.43.4.41.41,0,0,1-.43.4H13.48Z"/></svg>