<svg xmlns="http://www.w3.org/2000/svg" width="22.783" height="24" viewBox="0 0 22.783 24">
  <g id="Group_5234" data-name="Group 5234" transform="translate(-1141 2462)">
    <g id="Group_5233" data-name="Group 5233" transform="translate(1141 -2462)">
      <path id="Path_10752" data-name="Path 10752" d="M20.806,24H5.868A1.969,1.969,0,0,1,3.9,22.034V17.078a.375.375,0,0,1,.375-.375H16.9a.484.484,0,0,0,.484-.484v-6.2a.484.484,0,0,0-.484-.483H4.277A.375.375,0,0,1,3.9,9.156V1.966A1.969,1.969,0,0,1,5.868,0H16.641a.375.375,0,0,1,.375.375V5.159a.6.6,0,0,0,.6.6H22.4a.374.374,0,0,1,.375.375v15.9A1.967,1.967,0,0,1,20.806,24ZM4.653,17.453v4.581A1.218,1.218,0,0,0,5.869,23.25H20.806a1.217,1.217,0,0,0,1.216-1.216V6.505H17.613a1.347,1.347,0,0,1-1.346-1.346V.75H5.869A1.218,1.218,0,0,0,4.653,1.966V8.781H16.9a1.234,1.234,0,0,1,1.234,1.233v6.2A1.235,1.235,0,0,1,16.9,17.453Z" fill="#233735"/>
      <path id="Path_10753" data-name="Path 10753" d="M16.9,17.456H1.234A1.235,1.235,0,0,1,0,16.222v-6.2A1.235,1.235,0,0,1,1.234,8.783H16.9a1.235,1.235,0,0,1,1.234,1.234v6.2A1.235,1.235,0,0,1,16.9,17.456ZM1.235,9.533a.484.484,0,0,0-.484.484v6.2a.484.484,0,0,0,.484.484H16.9a.484.484,0,0,0,.484-.484v-6.2a.484.484,0,0,0-.484-.484Z" fill="#233735"/>
      <path id="Path_10754" data-name="Path 10754" d="M22.408,6.506H17.622A1.348,1.348,0,0,1,16.275,5.16V.376A.376.376,0,0,1,16.916.11l5.733,5.734a.375.375,0,0,1-.241.662ZM17.024,1.281V5.16a.6.6,0,0,0,.6.6H21.5Z" fill="#233735"/>
      <path id="Path_10755" data-name="Path 10755" d="M3.15,15.517a.486.486,0,1,1,.519-.487A.51.51,0,0,1,3.15,15.517Z" fill="#233735"/>
      <path id="Path_10756" data-name="Path 10756" d="M5.579,13.96V15.1a.439.439,0,0,1-.876,0V11.5a.477.477,0,0,1,.488-.45h.918A1.394,1.394,0,0,1,7.7,12.516a1.4,1.4,0,0,1-1.595,1.445h-.53Zm0-.794H6.11c.469,0,.719-.206.719-.656,0-.326-.131-.663-.719-.663H5.579Z" fill="#233735"/>
      <path id="Path_10757" data-name="Path 10757" d="M9.771,15.462H9.064a.478.478,0,0,1-.488-.45V11.5a.477.477,0,0,1,.488-.45h.707c1.412,0,1.9.775,1.9,1.644v1.075C11.671,14.649,11.19,15.462,9.771,15.462ZM10.8,12.691c0-.475-.243-.85-.918-.85H9.451v2.826h.426a.814.814,0,0,0,.918-.9Z" fill="#233735"/>
      <path id="Path_10758" data-name="Path 10758" d="M13.479,15.116a.439.439,0,0,1-.875,0V11.49a.476.476,0,0,1,.482-.444H14.78a.429.429,0,0,1,.437.406.409.409,0,0,1-.437.387h-1.3v1.012h1.183a.422.422,0,0,1,.431.394.411.411,0,0,1-.431.4H13.479Z" fill="#233735"/>
    </g>
  </g>
</svg>
