<svg width="162" height="29" viewBox="0 0 162 29" fill="none" xmlns="http://www.w3.org/2000/svg">
<rect x="10.9418" y="21.8835" width="7.81553" height="6.25243" fill="#D3D7D7"/>
<rect x="20.3204" y="21.8835" width="7.81553" height="6.25243" fill="#D3D7D7"/>
<rect x="29.699" y="21.8835" width="7.81553" height="6.25243" fill="#D3D7D7"/>
<rect x="39.0776" y="21.8835" width="7.81553" height="6.25243" fill="#D3D7D7"/>
<rect x="48.4563" y="21.8835" width="7.81553" height="6.25243" fill="#D3D7D7"/>
<rect x="57.835" y="21.8835" width="7.81553" height="6.25243" fill="#D3D7D7"/>
<rect x="67.2136" y="21.8835" width="7.81553" height="6.25243" fill="#D3D7D7"/>
<rect x="76.5923" y="21.8835" width="7.81553" height="6.25243" fill="#D3D7D7"/>
<rect x="85.9708" y="21.8835" width="7.81553" height="6.25243" fill="#D3D7D7"/>
<rect x="95.3495" y="21.8835" width="7.81553" height="6.25243" fill="#D3D7D7"/>
<rect x="104.728" y="21.8835" width="7.81553" height="6.25243" fill="#D3D7D7"/>
<rect x="114.107" y="21.8835" width="7.81553" height="6.25243" fill="#D3D7D7"/>
<rect x="123.485" y="21.8835" width="7.81553" height="6.25243" fill="#D3D7D7"/>
<rect x="132.864" y="21.8835" width="7.81553" height="6.25243" fill="#D3D7D7"/>
<rect x="142.243" y="21.8835" width="7.81553" height="6.25243" fill="#D3D7D7"/>
<path d="M0 25.0097C0 23.2832 1.39965 21.8835 3.12621 21.8835H9.37864V28.1359H3.12621C1.39965 28.1359 0 26.7363 0 25.0097Z" fill="#00B686"/>
<path d="M161 25.0097C161 23.2832 159.6 21.8835 157.874 21.8835H151.621V28.1359H157.874C159.6 28.1359 161 26.7363 161 25.0097Z" fill="#D3D7D7"/>
<path d="M146.327 16.168C148.651 16.168 150.191 15.034 150.191 13.396C150.191 12.052 148.987 11.282 147.993 11.184C149.099 11.002 150.037 10.176 150.037 9.084C150.037 7.544 148.707 6.522 146.327 6.522C144.605 6.522 143.373 7.152 142.589 8.034L143.751 9.546C144.409 8.958 145.221 8.65 146.075 8.65C146.971 8.65 147.643 8.916 147.643 9.504C147.643 9.994 147.097 10.232 146.131 10.232C145.781 10.232 145.053 10.232 144.871 10.218V12.36C145.011 12.346 145.725 12.346 146.131 12.346C147.405 12.346 147.797 12.598 147.797 13.13C147.797 13.648 147.265 14.04 146.229 14.04C145.417 14.04 144.353 13.718 143.681 13.06L142.463 14.698C143.191 15.538 144.535 16.168 146.327 16.168ZM153.404 11.198C154.902 11.198 155.868 10.176 155.868 8.874C155.868 7.558 154.902 6.522 153.404 6.522C151.934 6.522 150.982 7.558 150.982 8.874C150.982 10.176 151.934 11.198 153.404 11.198ZM153.684 16L159.662 6.662H158.444L152.48 16H153.684ZM158.682 16.168C160.166 16.168 161.132 15.146 161.132 13.844C161.132 12.528 160.166 11.492 158.682 11.492C157.212 11.492 156.26 12.528 156.26 13.844C156.26 15.146 157.212 16.168 158.682 16.168ZM153.404 9.91C152.872 9.91 152.466 9.546 152.466 8.874C152.466 8.174 152.872 7.81 153.404 7.81C153.95 7.81 154.37 8.174 154.37 8.874C154.37 9.546 153.95 9.91 153.404 9.91ZM158.682 14.88C158.136 14.88 157.744 14.53 157.744 13.844C157.744 13.144 158.136 12.78 158.682 12.78C159.228 12.78 159.648 13.144 159.648 13.844C159.648 14.53 159.228 14.88 158.682 14.88Z" fill="#00B686"/>
<path d="M10.234 15V5.662H8.568L5.656 12.69L2.758 5.662H1.092V15H2.254V7.314L5.418 15H5.894L9.072 7.314V15H10.234ZM17.9843 15V8.238H16.9343V13.208C16.5423 13.754 15.7583 14.23 14.9323 14.23C14.0223 14.23 13.4203 13.88 13.4203 12.69V8.238H12.3703V13.012C12.3703 14.482 13.1123 15.168 14.5263 15.168C15.5343 15.168 16.4163 14.636 16.9343 14.048V15H17.9843ZM21.7893 15.168C22.4053 15.168 22.7833 14.986 23.0493 14.734L22.7413 13.95C22.6013 14.104 22.3213 14.23 22.0273 14.23C21.5653 14.23 21.3413 13.866 21.3413 13.362V9.162H22.7133V8.238H21.3413V6.39H20.2913V8.238H19.1713V9.162H20.2913V13.586C20.2913 14.594 20.7953 15.168 21.7893 15.168ZM29.8105 15V8.238H28.7605V13.208C28.3685 13.754 27.5845 14.23 26.7585 14.23C25.8485 14.23 25.2465 13.88 25.2465 12.69V8.238H24.1965V13.012C24.1965 14.482 24.9385 15.168 26.3525 15.168C27.3605 15.168 28.2425 14.636 28.7605 14.048V15H29.8105ZM37.1854 15V10.352C37.1854 8.714 35.9954 8.07 34.5674 8.07C33.4614 8.07 32.5934 8.434 31.8654 9.19L32.3554 9.918C32.9574 9.274 33.6154 8.98 34.4274 8.98C35.4074 8.98 36.1354 9.498 36.1354 10.408V11.626C35.5894 10.996 34.8194 10.702 33.8954 10.702C32.7474 10.702 31.5294 11.416 31.5294 12.928C31.5294 14.398 32.7474 15.168 33.8954 15.168C34.8054 15.168 35.5754 14.846 36.1354 14.23V15H37.1854ZM34.2734 14.412C33.2934 14.412 32.6074 13.796 32.6074 12.942C32.6074 12.074 33.2934 11.458 34.2734 11.458C35.0154 11.458 35.7294 11.738 36.1354 12.298V13.572C35.7294 14.132 35.0154 14.412 34.2734 14.412ZM40.3402 15V5.662H39.2902V15H40.3402ZM54.0801 15L50.3141 5.662H48.8721L45.1201 15H46.4501L47.2761 12.928H51.9241L52.7501 15H54.0801ZM51.5741 11.892H47.6121L49.6001 6.866L51.5741 11.892ZM58.241 15.168C59.473 15.168 60.201 14.664 60.719 13.992L60.019 13.348C59.571 13.95 58.997 14.23 58.297 14.23C56.855 14.23 55.959 13.11 55.959 11.612C55.959 10.114 56.855 9.008 58.297 9.008C58.997 9.008 59.571 9.274 60.019 9.89L60.719 9.246C60.201 8.574 59.473 8.07 58.241 8.07C56.225 8.07 54.867 9.61 54.867 11.612C54.867 13.628 56.225 15.168 58.241 15.168ZM63.8986 15.168C64.5146 15.168 64.8926 14.986 65.1586 14.734L64.8506 13.95C64.7106 14.104 64.4306 14.23 64.1366 14.23C63.6746 14.23 63.4506 13.866 63.4506 13.362V9.162H64.8226V8.238H63.4506V6.39H62.4006V8.238H61.2806V9.162H62.4006V13.586C62.4006 14.594 62.9046 15.168 63.8986 15.168ZM66.8239 7.272C67.2159 7.272 67.5379 6.964 67.5379 6.572C67.5379 6.18 67.2159 5.858 66.8239 5.858C66.4459 5.858 66.1239 6.18 66.1239 6.572C66.1239 6.964 66.4459 7.272 66.8239 7.272ZM67.3559 15V8.238H66.3059V15H67.3559ZM72.4044 15.168C74.4624 15.168 75.7504 13.572 75.7504 11.612C75.7504 9.652 74.4624 8.07 72.4044 8.07C70.3464 8.07 69.0584 9.652 69.0584 11.612C69.0584 13.572 70.3464 15.168 72.4044 15.168ZM72.4044 14.23C70.9624 14.23 70.1504 12.998 70.1504 11.612C70.1504 10.24 70.9624 9.008 72.4044 9.008C73.8464 9.008 74.6444 10.24 74.6444 11.612C74.6444 12.998 73.8464 14.23 72.4044 14.23ZM83.0761 15V10.254C83.0761 8.784 82.3341 8.07 80.9201 8.07C79.9121 8.07 78.9881 8.658 78.5121 9.218V8.238H77.4621V15H78.5121V10.058C78.9041 9.512 79.6881 9.008 80.5141 9.008C81.4241 9.008 82.0261 9.386 82.0261 10.576V15H83.0761ZM89.9864 15V11.29H92.5764C94.4244 11.29 95.5024 10.002 95.5024 8.476C95.5024 6.95 94.4524 5.662 92.5764 5.662H88.8244V15H89.9864ZM92.4364 10.254H89.9864V6.698H92.4364C93.5424 6.698 94.2984 7.426 94.2984 8.476C94.2984 9.526 93.5424 10.254 92.4364 10.254ZM98.0492 15V5.662H96.9992V15H98.0492ZM105.422 15V10.352C105.422 8.714 104.232 8.07 102.804 8.07C101.698 8.07 100.83 8.434 100.102 9.19L100.592 9.918C101.194 9.274 101.852 8.98 102.664 8.98C103.644 8.98 104.372 9.498 104.372 10.408V11.626C103.826 10.996 103.056 10.702 102.132 10.702C100.984 10.702 99.7658 11.416 99.7658 12.928C99.7658 14.398 100.984 15.168 102.132 15.168C103.042 15.168 103.812 14.846 104.372 14.23V15H105.422ZM102.51 14.412C101.53 14.412 100.844 13.796 100.844 12.942C100.844 12.074 101.53 11.458 102.51 11.458C103.252 11.458 103.966 11.738 104.372 12.298V13.572C103.966 14.132 103.252 14.412 102.51 14.412ZM113.141 15V10.254C113.141 8.784 112.399 8.07 110.985 8.07C109.977 8.07 109.053 8.658 108.577 9.218V8.238H107.527V15H108.577V10.058C108.969 9.512 109.753 9.008 110.579 9.008C111.489 9.008 112.091 9.386 112.091 10.576V15H113.141Z" fill="#7B8786"/>
</svg>
