<svg xmlns="http://www.w3.org/2000/svg" width="30.703" height="17.949" viewBox="0 0 30.703 17.949">
  <g id="same" transform="translate(-120.734 -816.937)">
    <path id="Path_9" data-name="Path 9" d="M210.209,826.715c-.139.693-.283,1.386-.416,2.081-.185.973-.36,1.947-.542,2.92a.642.642,0,0,1-.725.6c-.309,0-.617,0-.915,0-.66,1.748-1.686,2.573-3.172,2.568s-2.523-.853-3.146-2.568h-.281c-2.4,0-4.8,0-7.194-.006a.335.335,0,0,0-.387.293,3.184,3.184,0,0,1-6.117-.039c-.061-.214-.157-.256-.353-.252-.539.011-1.079.008-1.619,0a.642.642,0,1,1,0-1.274c.628,0,1.256,0,1.889,0,.051-.161.091-.305.141-.446a3.218,3.218,0,0,1,3.047-2.12,3.174,3.174,0,0,1,3,2.257.362.362,0,0,0,.428.314c1-.013,2-.005,3.042-.005l2.917-12.812h-.43q-6.91,0-13.821,0a2.1,2.1,0,0,1-.446-.034.628.628,0,0,1-.008-1.222,1.523,1.523,0,0,1,.356-.034q7.48,0,14.96,0c.674,0,.928.319.779.976-.214.944-.43,1.887-.654,2.869h.385c1.359.012,2.721-.036,4.075.049a5.718,5.718,0,0,1,5.144,4.875c.013.1.04.192.061.287Zm-9.946-4.641-2.034,8.967h3.079a3.215,3.215,0,0,1,6.293-.017h.481c.212-1.132.427-2.249.627-3.369a6.064,6.064,0,0,0,.207-1.506,4.421,4.421,0,0,0-4.376-4.069c-1.228-.021-2.457-.006-3.686-.006Zm4.183,7.693a1.913,1.913,0,0,0-1.911,1.929,1.918,1.918,0,0,0,3.836-.013A1.913,1.913,0,0,0,204.446,829.767Zm-12.162,1.926a1.9,1.9,0,1,0-3.809-.021,1.9,1.9,0,1,0,3.809.021Z" transform="translate(-58.771)" fill="#707070"/>
    <path id="Path_10" data-name="Path 10" d="M125.221,946.263c-1.258,0-2.516,0-3.774,0a.632.632,0,0,1-.658-.873.652.652,0,0,1,.671-.4c1.058,0,2.117,0,3.175,0q2.156,0,4.313,0a.654.654,0,0,1,.722.5.631.631,0,0,1-.674.777C127.737,946.267,126.479,946.263,125.221,946.263Z" transform="translate(0 -117.791)" fill="#707070"/>
    <path id="Path_11" data-name="Path 11" d="M140.566,898.255q-1.514,0-3.028,0a1.418,1.418,0,0,1-.385-.036.638.638,0,0,1-.426-.626.649.649,0,0,1,.535-.6,1.232,1.232,0,0,1,.209-.01q3.088,0,6.176,0a.682.682,0,0,1,.676.35.626.626,0,0,1-.58.923c-.759.013-1.519,0-2.278,0Z" transform="translate(-14.711 -73.628)" fill="#707070"/>
    <path id="Path_12" data-name="Path 12" d="M155.974,850.263c-.809,0-1.618,0-2.426,0-.475,0-.743-.232-.747-.628s.28-.646.763-.647c1.638,0,3.275,0,4.913,0a.642.642,0,0,1,.62.961.666.666,0,0,1-.636.315C157.632,850.261,156.8,850.263,155.974,850.263Z" transform="translate(-29.497 -29.481)" fill="#707070"/>
  </g>
</svg>
